<svg xmlns="http://www.w3.org/2000/svg" width="512" height="512" viewBox="0 0 512 512" version="1.1">
	<path d="M 142.339 15.632 C 141.564 15.949, 142.433 18.830, 144.953 24.304 C 147.030 28.812, 149.059 33.558, 149.464 34.852 L 150.199 37.204 133.850 36.852 C 121.690 36.590, 117.500 36.805, 117.500 37.689 C 117.500 38.342, 120.341 40.713, 123.813 42.958 C 130.538 47.304, 139.516 55.227, 141.127 58.236 C 141.927 59.732, 140.733 61.613, 134.431 68.778 C 115.761 90.012, 106.405 109.396, 102.471 135 C 100.028 150.902, 100.800 166.037, 104.853 181.691 L 106.615 188.500 101.819 194.289 C 86.716 212.515, 77.092 233.723, 74.072 255.434 C 72.518 266.611, 72.657 272, 74.500 272 C 75.753 272, 76 274.046, 76 284.412 C 76 303.768, 79.811 319.500, 84.500 319.500 C 85.967 319.500, 87.567 317.500, 90.500 312 C 94.452 304.590, 94.503 304.542, 94.759 308 C 95.523 318.313, 97.292 328.336, 99.543 335.110 C 102.674 344.533, 107.388 352.264, 109.729 351.814 C 110.656 351.635, 113.764 348.577, 116.636 345.018 C 119.507 341.459, 122.296 338.401, 122.833 338.222 C 123.370 338.043, 125.984 342.021, 128.641 347.061 C 140.025 368.652, 159.427 386.172, 183.443 396.549 C 189.890 399.334, 190.527 399.874, 190.813 402.799 C 190.986 404.559, 190.890 406, 190.600 406 C 190.311 406, 187.791 405.100, 185 404 C 177.912 401.206, 173.311 401.415, 168.482 404.750 L 164.500 407.500 125.750 407.794 C 92.022 408.050, 87 408.283, 87 409.595 C 87 410.424, 88.463 411.719, 90.250 412.473 C 92.037 413.227, 94.601 414.879, 95.947 416.145 C 98.394 418.445, 98.399 418.445, 130.263 418.473 L 162.132 418.500 163.913 423.500 C 164.893 426.250, 166.036 429.288, 166.454 430.250 C 167.169 431.897, 165.213 432, 133.107 432 C 109.816 432, 99 431.665, 99 430.943 C 99 430.351, 98.023 430.571, 96.777 431.443 C 94.842 432.799, 88.449 433, 47.277 433 L 0 433 0 470.002 L 0 507.004 256.250 506.752 L 512.500 506.500 512.762 469.500 L 513.024 432.500 459.585 432.500 C 406.794 432.500, 406.112 432.474, 403.323 430.392 C 400.904 428.586, 400.500 427.591, 400.500 423.440 C 400.500 418.921, 400.769 418.407, 404.500 415.798 C 406.700 414.260, 410.864 412.444, 413.754 411.763 C 424.819 409.156, 418.692 408.505, 378.237 407.989 C 338.202 407.478, 338.133 407.474, 335.710 405.197 C 331.287 401.042, 326.977 400.591, 318.812 403.431 C 311.139 406.099, 310.047 405.836, 310.015 401.313 C 310.003 399.541, 312.038 398.067, 320.750 393.540 C 326.663 390.467, 334.471 385.728, 338.102 383.008 C 349.174 374.714, 361.745 360.654, 368.920 348.538 L 375.341 337.698 378.298 341.099 C 389.722 354.240, 388.800 353.491, 391.042 351.462 C 396.492 346.530, 402.696 327.732, 403.681 313.166 L 404.313 303.833 407.536 309.166 C 412.790 317.860, 414.996 320.248, 416.567 318.944 C 420.977 315.285, 424.570 295.741, 423.498 281.250 C 422.900 273.167, 423.014 272, 424.407 272 C 426.420 272, 426.443 269.281, 424.527 257.470 C 420.645 233.531, 411.042 210.965, 397.842 194.760 L 393.261 189.137 395.670 180.819 C 398.927 169.574, 399.982 157.851, 398.880 145.156 C 396.332 115.814, 386.037 92.488, 365.048 68.500 C 361.198 64.100, 358.037 60.155, 358.024 59.733 C 357.989 58.628, 366.632 50.513, 370.884 47.659 C 372.873 46.324, 377.087 43.610, 380.250 41.628 C 390.244 35.365, 387.679 34.034, 370.062 36.341 C 354.494 38.380, 353 38.396, 353 36.524 C 353 35.713, 355.025 31.178, 357.500 26.446 C 359.975 21.715, 362 17.437, 362 16.941 C 362 16.444, 360.862 15.753, 359.472 15.404 C 357.295 14.857, 355.702 15.966, 348.007 23.385 C 343.091 28.123, 336.941 33.350, 334.339 35 C 327.418 39.389, 323.676 39.054, 307.750 32.619 C 284.116 23.069, 270.178 20.531, 245.500 21.281 C 226.588 21.856, 216.948 23.751, 198.500 30.517 C 177.224 38.320, 177.420 38.279, 172.250 35.992 C 169.746 34.885, 164.808 31.396, 161.276 28.239 C 147.022 15.499, 145.364 14.396, 142.339 15.632 M 233.204 35.173 C 219.286 36.919, 198.556 43.109, 193.841 46.927 L 191.600 48.742 197.287 50.395 C 213.174 55.014, 232.373 68.322, 243.700 82.569 C 247.386 87.206, 250.686 91, 251.032 91 C 251.378 91, 253.177 88.862, 255.031 86.250 C 266.427 70.186, 283.104 57.556, 300.823 51.570 C 304.301 50.395, 307.196 48.999, 307.256 48.467 C 307.433 46.904, 295.159 41.319, 286.500 39.022 C 269.574 34.532, 249.737 33.099, 233.204 35.173 M 167.645 77.584 C 148.521 82.213, 130.204 99.753, 123.606 119.755 C 111.465 156.557, 124.721 192.782, 155.546 207.039 C 162.436 210.225, 174.644 213.004, 181.708 212.992 C 194.114 212.973, 208.901 208.491, 219.272 201.608 C 233.663 192.056, 241.804 179.629, 246.708 159.731 C 248.167 153.808, 249.662 149.308, 250.030 149.731 C 250.397 150.154, 252.375 155.450, 254.426 161.500 C 260.309 178.858, 263.463 184.467, 272.528 193.695 C 279.052 200.336, 282.184 202.660, 289.039 205.948 C 300.174 211.289, 310.070 213.372, 320.635 212.600 C 352.350 210.283, 376.722 186.754, 379.902 155.383 C 381.504 139.574, 378.483 123.647, 371.198 109.500 C 365.928 99.265, 353.872 87.425, 343.815 82.605 C 330.091 76.029, 317.909 74.570, 304.774 77.930 C 289.555 81.822, 274.655 91.431, 265.001 103.579 C 259.806 110.117, 254.284 120.990, 252.468 128.259 C 251.294 132.959, 250.251 132.267, 247.945 125.257 C 243.425 111.519, 236.908 102.065, 225.697 92.987 C 208.216 78.831, 186.402 73.043, 167.645 77.584 M 171.798 96.874 C 163.666 99.555, 158.223 103.013, 152.332 109.243 C 143.176 118.923, 138.605 130.990, 138.796 144.973 C 139.051 163.596, 148.403 178.568, 164.909 186.777 C 171.697 190.152, 173.163 190.492, 182.409 190.830 C 193.530 191.237, 201.276 189.376, 209.152 184.404 C 219.539 177.847, 228.042 164.466, 230.033 151.541 C 232.457 135.810, 226.781 118.908, 215.408 107.987 C 206.288 99.230, 198.164 95.659, 186.500 95.284 C 179.764 95.067, 176.065 95.467, 171.798 96.874 M 306 96.406 C 289.411 100.141, 276.990 111.579, 272.009 127.705 C 269.198 136.807, 269.229 151.775, 272.077 160.228 C 279.293 181.650, 298.289 193.417, 321.330 190.741 C 334.339 189.229, 348.241 180.271, 354.712 169.228 C 362.876 155.298, 363.100 136.221, 355.291 120 C 350.019 109.049, 336.287 98.822, 323.201 96.102 C 316.683 94.747, 313.087 94.810, 306 96.406 M 157.245 132.155 C 155.413 133.987, 155.730 138.446, 157.829 140.345 C 160.452 142.719, 163.701 142.386, 165.557 139.553 C 166.935 137.450, 166.973 136.713, 165.823 134.303 C 164.335 131.184, 159.442 129.958, 157.245 132.155 M 211.986 133.515 C 210.022 135.606, 209.785 136.486, 210.580 138.747 C 211.912 142.536, 216.262 143.978, 218.970 141.527 C 221.396 139.332, 221.571 136.261, 219.443 133.223 C 217.405 130.312, 214.903 130.410, 211.986 133.515 M 284.333 133.615 C 282.812 135.936, 282.781 136.515, 284.059 138.761 C 287.116 144.129, 294 142.978, 294 137.098 C 294 131.335, 287.387 128.953, 284.333 133.615 M 338.200 132.200 C 336.501 133.899, 336.712 138.569, 338.571 140.429 C 340.436 142.294, 344.117 142.483, 345.800 140.800 C 347.274 139.326, 347.354 135.530, 345.965 132.934 C 344.792 130.742, 340.101 130.299, 338.200 132.200 M 246.497 184.141 C 242.992 190.121, 242.870 190.626, 244.002 194.464 C 245.731 200.322, 251.065 210, 252.567 210 C 253.970 210, 260 195.368, 260 191.962 C 260 189.711, 255.535 182.672, 252.207 179.677 C 250.212 177.882, 250.125 177.951, 246.497 184.141 M 373.155 215.177 C 368.333 220.415, 358.549 227.655, 350.147 232.203 L 347 233.907 347.020 245.203 C 347.042 257.916, 348.204 267.539, 350.577 274.669 C 352.599 280.748, 359.225 292.825, 359.721 291.337 C 359.925 290.725, 359.431 287.364, 358.623 283.868 C 357.816 280.372, 357.314 277.352, 357.509 277.157 C 357.704 276.962, 358.971 280.408, 360.324 284.815 C 363.129 293.948, 367.163 300.377, 372.979 304.983 C 375.190 306.735, 376.998 308.018, 376.995 307.834 C 376.969 305.919, 368.319 281.594, 366.102 277.203 C 363.126 271.307, 360.508 263.159, 361.327 262.340 C 361.579 262.088, 363.198 264.350, 364.924 267.368 C 368.266 273.208, 376.546 283, 378.144 283 C 379.149 283, 375.408 277.521, 371.057 272.620 C 368.844 270.128, 368.780 269.885, 370.582 270.816 C 371.727 271.407, 373.245 272.590, 373.955 273.445 C 375.284 275.048, 377.979 275.580, 378.028 274.250 C 378.043 273.837, 375.455 271.106, 372.278 268.180 C 366.906 263.234, 366.815 263.080, 370.981 265.988 C 375.926 269.441, 377.287 268.616, 374.078 264.110 C 371.614 260.649, 371.480 259.863, 373.487 260.633 C 374.562 261.046, 374.314 259.999, 372.591 256.852 C 371.281 254.458, 369.923 251.375, 369.573 250 C 369.136 248.283, 369.580 248.674, 370.992 251.250 C 372.123 253.313, 373.289 255, 373.583 255 C 373.877 255, 373.840 254.550, 373.500 254 C 373.160 253.450, 373.380 253, 373.988 253 C 374.596 253, 373.801 251.313, 372.220 249.250 C 369.434 245.617, 366.569 240, 367.501 240 C 367.753 240, 368.827 241.688, 369.888 243.750 C 371.876 247.615, 378 254.139, 378 252.391 C 378 251.850, 375.963 248.104, 373.473 244.065 C 370.982 240.026, 369.177 236.490, 369.460 236.207 C 369.743 235.923, 373.615 239.473, 378.063 244.096 C 382.512 248.718, 385.849 251.600, 385.479 250.500 C 383.055 243.295, 380.019 227.977, 379.322 219.436 L 378.500 209.372 373.155 215.177 M 119.543 217.199 C 118.626 227.177, 115.360 240.328, 112.079 247.250 C 110.580 250.412, 109.552 253, 109.793 253 C 110.803 253, 120.885 245.182, 125.750 240.626 C 128.637 237.922, 131 236.158, 131 236.706 C 131 237.839, 121.578 250.525, 120.021 251.487 C 117.427 253.090, 119.369 253.861, 122.250 252.371 C 125.415 250.735, 125.462 250.741, 124.050 252.595 C 123.253 253.643, 124.715 252.494, 127.300 250.042 C 129.885 247.590, 132 246.072, 132 246.669 C 132 247.267, 131.300 248.336, 130.445 249.045 C 129.590 249.755, 128.400 251.273, 127.800 252.418 C 126.720 254.478, 126.731 254.480, 128.854 252.595 C 130.035 251.547, 131 251.155, 131 251.723 C 131 252.290, 130.330 253.311, 129.511 253.991 C 128.692 254.671, 128.252 255.598, 128.532 256.052 C 128.813 256.506, 128.245 257.341, 127.271 257.908 C 126.152 258.560, 125.990 258.950, 126.832 258.970 C 127.794 258.992, 127.580 259.944, 126.057 262.408 C 124.568 264.817, 124.307 265.936, 125.168 266.223 C 125.976 266.492, 125.481 267.814, 123.693 270.159 C 120.538 274.294, 120.397 275, 122.728 275 C 123.678 275, 127.130 272.188, 130.399 268.750 C 136.299 262.546, 136.317 262.536, 132.921 267.380 C 131.040 270.063, 127.918 274.113, 125.985 276.380 C 124.052 278.646, 121.802 281.382, 120.985 282.461 C 119.624 284.259, 119.755 284.243, 122.562 282.277 C 126.960 279.196, 133.258 272.123, 136.443 266.687 C 137.954 264.109, 139.336 262, 139.514 262 C 140.128 262, 137.778 269.503, 136.225 272.500 C 133.848 277.091, 123.192 308, 123.988 308 C 125.072 308, 134.465 298.746, 136.441 295.730 C 137.411 294.250, 139.713 289.092, 141.557 284.269 C 145.346 274.354, 146.027 274.465, 142.930 284.491 C 141.791 288.177, 141.038 291.372, 141.256 291.590 C 141.911 292.245, 148.926 277.614, 150.469 272.375 C 153.182 263.164, 154.103 253.929, 153.407 242.929 L 152.726 232.167 148.429 230.526 C 142.155 228.130, 132.506 221.624, 125.947 215.368 L 120.213 209.899 119.543 217.199 M 236.490 215.813 C 215.153 231.957, 203.444 236.701, 182.053 237.871 L 170.543 238.500 170.840 246.500 C 171.681 269.194, 163.852 293.704, 148.283 317.117 C 143.739 323.951, 143.704 324.069, 144.939 328.262 C 146.803 334.592, 153.305 348.110, 157.651 354.692 C 167.588 369.739, 184.771 383.828, 201.473 390.623 C 215.733 396.425, 236.773 401, 249.194 401 C 255.806 401, 273.066 398.413, 282.427 396.019 C 314.231 387.885, 339.135 365.509, 351.993 333.516 L 356.232 322.970 351.259 315.235 C 337.060 293.150, 331.305 275.911, 330.152 252 L 329.500 238.500 317 237.872 C 297.644 236.900, 285.818 232.383, 270.603 220.152 L 262.705 213.803 258.775 218.402 C 256.613 220.931, 254.330 223, 253.701 223 C 253.072 223, 250.065 220.533, 247.019 217.519 L 241.480 212.037 236.490 215.813 M 203.655 252.829 C 201.869 254.803, 201.535 257.718, 202.857 259.802 C 203.515 260.841, 213.125 261.110, 250.307 261.133 C 275.950 261.148, 297.396 260.873, 297.965 260.521 C 299.355 259.663, 299.285 255.294, 297.868 254.418 C 297.245 254.033, 277.929 253.811, 254.944 253.924 C 218.706 254.103, 212.750 253.922, 210.126 252.565 C 206.279 250.576, 205.672 250.600, 203.655 252.829 M 204.655 285.829 C 202.614 288.083, 202.519 291.356, 204.446 292.956 C 206.468 294.634, 296.591 294.584, 298.616 292.904 C 300.724 291.154, 300.272 288.224, 297.625 286.490 C 295.714 285.238, 294.396 285.131, 290.875 285.942 C 288.360 286.522, 271.192 286.946, 250.500 286.940 C 221.141 286.931, 214.039 286.665, 212 285.500 C 208.614 283.564, 206.624 283.653, 204.655 285.829 M 206.931 318.341 C 201.438 321.065, 204.996 330.171, 210.837 328.337 C 214.283 327.254, 289.678 327.241, 293.106 328.322 C 295.018 328.925, 296.151 328.706, 297.356 327.501 C 299.211 325.646, 299.551 321.459, 297.929 320.456 C 297.340 320.092, 278.459 319.862, 255.971 319.945 C 221.621 320.071, 214.627 319.858, 212.223 318.615 C 209.914 317.422, 208.891 317.369, 206.931 318.341 M 207.200 353.200 C 206.540 353.860, 206 355.650, 206 357.177 C 206 361.012, 209.547 363.277, 213.692 362.088 C 215.388 361.602, 222.564 361.328, 229.638 361.480 C 236.712 361.632, 254.104 361.853, 268.287 361.970 C 294.986 362.192, 297 361.919, 297 358.078 C 297 354.093, 296.025 354, 254.359 354 C 228.610 354, 213.895 353.640, 213.500 353 C 212.646 351.618, 208.656 351.744, 207.200 353.200 M 274.514 411.545 C 260.153 413.954, 245.501 414.333, 234.074 412.590 C 228.339 411.716, 222.347 411, 220.757 411 C 218.194 411, 217.903 411.311, 218.184 413.750 C 218.395 415.587, 218.998 416.387, 220 416.159 C 224.998 415.023, 231.942 414.899, 233.836 415.912 C 236.935 417.571, 239.142 421.358, 240.481 427.316 L 241.646 432.500 250.573 432.794 C 262.986 433.203, 263.595 432.968, 264.345 427.498 C 265.721 417.459, 269.724 414.132, 278.230 415.956 C 280.908 416.530, 283.301 417, 283.549 417 C 283.797 417, 284 415.425, 284 413.500 C 284 411.575, 283.663 410.046, 283.250 410.103 C 282.837 410.159, 278.906 410.808, 274.514 411.545 M 325.250 415.220 C 322.219 416.682, 322.387 417.168, 326.727 419.500 C 328.776 420.601, 331.410 423.217, 332.586 425.320 L 334.722 429.140 335.278 426.320 C 336.134 421.980, 335.011 418.154, 332.244 415.977 C 329.428 413.763, 328.485 413.660, 325.250 415.220 M 168.245 416.250 C 166.497 418.435, 165.829 421.946, 166.543 425.196 L 167.235 428.346 168.515 425.302 C 169.939 421.915, 173.505 419, 176.223 419 C 178.425 419, 178.573 416.434, 176.418 415.607 C 173.748 414.582, 169.299 414.932, 168.245 416.250 M 338.599 422.105 C 338.238 424.363, 337.243 427.563, 336.388 429.217 L 334.832 432.225 365.166 431.496 C 381.850 431.095, 395.518 430.707, 395.540 430.634 C 395.562 430.560, 395.409 427.688, 395.201 424.250 L 394.822 418 367.039 418 L 339.256 418 338.599 422.105 M 179.195 427.490 C 174.087 431.788, 174.900 433, 182.892 433 C 189.509 433, 189.810 432.895, 190.447 430.355 C 191.263 427.106, 190.329 426.090, 185.858 425.364 C 183.060 424.910, 181.771 425.321, 179.195 427.490 M 216.500 426.523 C 213.750 427.287, 211.162 427.932, 210.750 427.956 C 209.443 428.033, 209.942 432.040, 211.325 432.571 C 212.054 432.851, 216.891 432.949, 222.075 432.790 L 231.500 432.500 227.850 428.750 C 223.804 424.594, 223.597 424.553, 216.500 426.523 M 276.250 428.224 C 272.387 432.353, 273.233 433, 282.500 433 C 290.799 433, 291 432.943, 291 430.607 C 291 427.888, 289.955 427.326, 283.262 426.445 C 279.082 425.895, 278.225 426.112, 276.250 428.224 M 311.750 427.080 C 310.788 427.641, 310 428.887, 310 429.850 C 310 433.739, 313.657 434.778, 322.310 433.348 L 326.120 432.719 322.864 429.359 C 319.460 425.847, 315.323 424.999, 311.750 427.080 M 0.453 470 C 0.453 490.625, 0.586 499.063, 0.749 488.750 C 0.911 478.438, 0.911 461.563, 0.749 451.250 C 0.586 440.938, 0.453 449.375, 0.453 470 M 279.250 441.745 C 274.163 441.927, 270 442.438, 270 442.883 C 270 443.327, 270.883 444.489, 271.962 445.466 C 273.042 446.443, 274.427 448.762, 275.040 450.621 C 276.303 454.448, 277.007 454.566, 291.370 453.352 C 298.297 452.766, 298.905 452.548, 297.637 451.102 C 296.865 450.221, 295.271 447.587, 294.096 445.250 C 292.693 442.458, 291.366 441.071, 290.230 441.208 C 289.278 441.322, 284.337 441.564, 279.250 441.745 M 309.616 445.500 C 308.843 447.700, 307.891 450.288, 307.499 451.250 C 306.826 452.902, 309.420 453, 353.794 453 L 400.802 453 402.862 449.509 C 403.995 447.589, 406.317 445.169, 408.023 444.132 L 411.124 442.246 404.312 441.509 C 400.565 441.104, 378.042 440.936, 354.260 441.136 L 311.020 441.500 309.616 445.500 M 102.326 444.976 C 103.704 446.613, 105.144 449.378, 105.526 451.120 L 106.222 454.287 149.645 453.777 C 173.527 453.496, 193.256 453.078, 193.486 452.847 C 193.717 452.616, 192.745 450.081, 191.326 447.214 L 188.745 442 144.284 442 L 99.822 442 102.326 444.976 M 205.538 444.302 C 204.708 445.569, 203.741 448.044, 203.390 449.802 L 202.750 453 218.896 453 L 235.043 453 236.223 450.250 C 236.872 448.738, 238.243 446.262, 239.269 444.750 L 241.136 442 224.091 442 C 207.404 442, 207.014 442.048, 205.538 444.302 M 190 463.638 C 163.139 464.055, 117.152 465.998, 112.500 466.913 L 108.500 467.699 113.367 469.948 C 117.093 471.670, 121.195 472.400, 130.867 473.061 C 145.325 474.051, 209.030 474.108, 222.500 473.144 L 231.500 472.500 231.262 468.595 C 231.131 466.448, 230.762 464.429, 230.442 464.109 C 229.747 463.414, 215.267 463.245, 190 463.638 M 326 464.084 C 303.038 464.875, 283.657 466.452, 279.920 467.834 C 277.922 468.573, 277.947 468.655, 280.518 469.826 C 287.096 472.823, 298.719 473.420, 348.322 473.305 C 375.724 473.242, 398.257 473.035, 398.396 472.845 C 398.534 472.655, 398.457 470.363, 398.223 467.750 L 397.799 463 373.149 463.155 C 359.592 463.240, 338.375 463.659, 326 464.084 M 155.500 478.050 C 136.800 478.417, 118.800 478.789, 115.500 478.877 L 109.500 479.038 106.784 484.629 L 104.069 490.220 171.284 489.492 C 208.253 489.091, 238.583 488.697, 238.684 488.614 C 238.786 488.532, 237.677 485.885, 236.220 482.732 L 233.572 477 211.536 477.192 C 199.416 477.298, 174.200 477.684, 155.500 478.050 M 303.500 478.048 C 292.500 478.423, 282.262 478.790, 280.750 478.865 C 279.196 478.941, 278 479.579, 278 480.331 C 278 481.062, 276.902 483.830, 275.560 486.481 L 273.119 491.302 288.810 490.679 C 297.439 490.337, 327.712 489.512, 356.083 488.846 L 407.665 487.635 403.689 482.317 L 399.712 477 361.606 477.184 C 340.648 477.285, 314.500 477.674, 303.500 478.048" stroke="none" fill="black" fill-rule="evenodd"/>
</svg>