<svg width="349" height="50" viewBox="0 0 349 50" fill="none" xmlns="http://www.w3.org/2000/svg">
<g filter="url(#filter0_d_94_2)">
<path d="M17.9571 33.46C15.5344 33.46 13.3264 33.1227 11.3331 32.448C9.37041 31.7427 7.77575 30.7307 6.54908 29.412C5.32241 28.0933 4.60174 26.4833 4.38708 24.582C4.35641 24.306 4.43308 24.076 4.61708 23.892C4.83174 23.708 5.07708 23.616 5.35308 23.616H11.3331C11.7011 23.616 11.9771 23.6773 12.1611 23.8C12.3451 23.9227 12.5291 24.1373 12.7131 24.444C13.0197 25.1493 13.5717 25.732 14.3691 26.192C15.1971 26.652 16.3317 26.882 17.7731 26.882C19.5517 26.882 20.9317 26.3453 21.9131 25.272C22.9251 24.1987 23.4311 22.6807 23.4311 20.718V19.982H14.5071C14.1697 19.982 13.8937 19.8593 13.6791 19.614C13.4644 19.3687 13.3571 19.0773 13.3571 18.74V15.06C13.3571 14.7227 13.4644 14.4313 13.6791 14.186C13.8937 13.9407 14.1697 13.818 14.5071 13.818H23.4311V13.174C23.4311 11.0273 22.9404 9.46333 21.9591 8.482C20.9777 7.47 19.5824 6.964 17.7731 6.964C16.3317 6.964 15.1971 7.20933 14.3691 7.7C13.5717 8.19067 13.0657 8.77333 12.8511 9.448C12.6671 9.75467 12.4984 9.96933 12.3451 10.092C12.1917 10.2147 11.9311 10.276 11.5631 10.276H5.53708C5.26108 10.276 5.01574 10.184 4.80108 10C4.58641 9.78533 4.49441 9.54 4.52508 9.264C4.77041 7.27067 5.50641 5.61467 6.73308 4.296C7.95974 2.97733 9.53908 1.996 11.4711 1.352C13.4031 0.677332 15.5651 0.339998 17.9571 0.339998C20.6557 0.339998 23.0324 0.815332 25.0871 1.766C27.1724 2.686 28.8131 4.112 30.0091 6.044C31.2357 7.94533 31.8951 10.3987 31.9871 13.404C32.0177 14.3547 32.0331 15.1827 32.0331 15.888C32.0637 16.5627 32.0637 17.2527 32.0331 17.958C32.0331 18.6327 32.0177 19.4453 31.9871 20.396C31.8951 23.432 31.2511 25.916 30.0551 27.848C28.8591 29.78 27.2337 31.206 25.1791 32.126C23.1244 33.0153 20.7171 33.46 17.9571 33.46ZM38.1238 33C37.7864 33 37.5104 32.8927 37.2958 32.678C37.0811 32.4633 36.9738 32.1873 36.9738 31.85V10.23C36.9738 9.89266 37.0811 9.61667 37.2958 9.402C37.5104 9.18733 37.7864 9.08 38.1238 9.08H43.4138C43.7511 9.08 44.0271 9.18733 44.2418 9.402C44.4564 9.61667 44.5638 9.89266 44.5638 10.23V17.866H47.0478L52.0618 9.816C52.1538 9.66267 52.3071 9.50933 52.5218 9.356C52.7364 9.172 53.0124 9.08 53.3498 9.08H59.2378C59.5138 9.08 59.7438 9.172 59.9278 9.356C60.1424 9.50933 60.2498 9.724 60.2498 10C60.2498 10.092 60.2191 10.1993 60.1578 10.322C60.1271 10.4447 60.0811 10.552 60.0198 10.644L53.7178 20.672L61.0778 31.482C61.2004 31.666 61.2618 31.8653 61.2618 32.08C61.2618 32.356 61.1698 32.586 60.9858 32.77C60.8018 32.9233 60.5564 33 60.2498 33H53.7638C53.4264 33 53.1504 32.9387 52.9358 32.816C52.7518 32.6627 52.5831 32.4787 52.4298 32.264L46.9558 23.892H44.5638V31.85C44.5638 32.1873 44.4564 32.4633 44.2418 32.678C44.0271 32.8927 43.7511 33 43.4138 33H38.1238ZM74.8983 33.46C72.7516 33.46 70.9729 33.23 69.5623 32.77C68.1823 32.31 67.0783 31.712 66.2503 30.976C65.4223 30.24 64.8243 29.4733 64.4563 28.676C64.1189 27.848 63.9043 27.112 63.8123 26.468C63.7816 26.2227 63.8583 26.0233 64.0423 25.87C64.2263 25.7167 64.4256 25.64 64.6403 25.64H69.9763C70.3136 25.64 70.5589 25.7013 70.7123 25.824C70.8963 25.9467 71.0496 26.1153 71.1723 26.33C71.4483 26.9433 71.8929 27.388 72.5063 27.664C73.1503 27.94 73.9783 28.078 74.9903 28.078C75.6956 28.078 76.3089 27.986 76.8303 27.802C77.3823 27.618 77.7963 27.342 78.0723 26.974C78.3483 26.606 78.4863 26.146 78.4863 25.594C78.4863 24.8273 78.2563 24.2447 77.7963 23.846C77.3363 23.4167 76.5389 23.202 75.4043 23.202H72.8283C72.5523 23.202 72.3223 23.11 72.1383 22.926C71.9543 22.7113 71.8623 22.466 71.8623 22.19V19.568C71.8623 19.292 71.9543 19.062 72.1383 18.878C72.3223 18.6633 72.5523 18.556 72.8283 18.556H75.3123C76.2629 18.556 76.9529 18.3873 77.3823 18.05C77.8116 17.7127 78.0263 17.1913 78.0263 16.486C78.0263 16.0567 77.9189 15.658 77.7043 15.29C77.4896 14.922 77.1523 14.6307 76.6923 14.416C76.2323 14.1707 75.6036 14.048 74.8063 14.048C73.6716 14.048 72.8589 14.2167 72.3683 14.554C71.9083 14.8607 71.5249 15.3513 71.2183 16.026C71.0956 16.2407 70.9423 16.4093 70.7583 16.532C70.6049 16.6547 70.3596 16.716 70.0223 16.716H64.8703C64.6249 16.716 64.4256 16.6393 64.2723 16.486C64.1189 16.3327 64.0423 16.1333 64.0423 15.888C64.1343 15.0907 64.3643 14.278 64.7323 13.45C65.1309 12.5913 65.7443 11.794 66.5723 11.058C67.4003 10.322 68.4889 9.73933 69.8383 9.31C71.1876 8.85 72.8743 8.62 74.8983 8.62C77.5049 8.62 79.5749 8.942 81.1083 9.586C82.6723 10.1993 83.7916 11.0273 84.4663 12.07C85.1409 13.082 85.4783 14.2013 85.4783 15.428C85.4783 16.4707 85.2636 17.4213 84.8343 18.28C84.4049 19.1387 83.6383 19.844 82.5343 20.396C83.9143 20.9173 84.8649 21.7147 85.3862 22.788C85.9076 23.8613 86.1683 25.0113 86.1683 26.238C86.1683 27.71 85.7083 28.9827 84.7883 30.056C83.8989 31.1293 82.6109 31.9727 80.9243 32.586C79.2376 33.1687 77.2289 33.46 74.8983 33.46ZM97.6966 33.46C96.0406 33.46 94.5533 33.1533 93.2346 32.54C91.9466 31.896 90.9193 31.0373 90.1526 29.964C89.386 28.8907 89.0026 27.6793 89.0026 26.33C89.0026 24.1527 89.892 22.4353 91.6706 21.178C93.4493 19.89 95.8106 19.016 98.7546 18.556L104.505 17.682V17.038C104.505 15.934 104.275 15.0907 103.815 14.508C103.355 13.9253 102.511 13.634 101.285 13.634C100.426 13.634 99.7206 13.8027 99.1686 14.14C98.6473 14.4773 98.2333 14.9373 97.9266 15.52C97.6506 15.9187 97.2673 16.118 96.7766 16.118H91.6246C91.2873 16.118 91.0266 16.026 90.8426 15.842C90.6586 15.6273 90.582 15.382 90.6126 15.106C90.6126 14.554 90.812 13.9253 91.2106 13.22C91.64 12.484 92.284 11.7633 93.1426 11.058C94.0013 10.3527 95.1053 9.77 96.4546 9.31C97.804 8.85 99.4293 8.62 101.331 8.62C103.324 8.62 105.026 8.85 106.437 9.31C107.847 9.77 108.982 10.414 109.841 11.242C110.73 12.07 111.389 13.0513 111.819 14.186C112.248 15.29 112.463 16.5167 112.463 17.866V31.85C112.463 32.1873 112.34 32.4633 112.095 32.678C111.88 32.8927 111.619 33 111.313 33H105.977C105.639 33 105.363 32.8927 105.149 32.678C104.934 32.4633 104.827 32.1873 104.827 31.85V30.24C104.428 30.8227 103.891 31.3593 103.217 31.85C102.542 32.3407 101.745 32.724 100.825 33C99.9353 33.3067 98.8926 33.46 97.6966 33.46ZM99.8586 28.216C100.748 28.216 101.545 28.032 102.251 27.664C102.987 27.2653 103.554 26.6673 103.953 25.87C104.382 25.042 104.597 24.0147 104.597 22.788V22.144L100.687 22.834C99.2453 23.0793 98.1873 23.4627 97.5126 23.984C96.8686 24.4747 96.5466 25.0573 96.5466 25.732C96.5466 26.2533 96.7 26.698 97.0066 27.066C97.3133 27.434 97.712 27.7253 98.2026 27.94C98.6933 28.124 99.2453 28.216 99.8586 28.216ZM118.573 33C118.328 33 118.113 32.908 117.929 32.724C117.745 32.54 117.653 32.31 117.653 32.034V10C117.653 9.75467 117.745 9.54 117.929 9.356C118.113 9.172 118.328 9.08 118.573 9.08H123.863C124.415 9.08 124.86 9.356 125.197 9.908L131.453 21.086L137.755 9.908C138.093 9.356 138.537 9.08 139.089 9.08H144.379C144.655 9.08 144.885 9.172 145.069 9.356C145.253 9.54 145.345 9.75467 145.345 10V32.034C145.345 32.31 145.253 32.54 145.069 32.724C144.885 32.908 144.655 33 144.379 33H138.675C138.399 33 138.169 32.908 137.985 32.724C137.801 32.54 137.709 32.31 137.709 32.034V17.038L139.963 17.544L133.753 28.4C133.6 28.676 133.416 28.9213 133.201 29.136C133.017 29.32 132.741 29.412 132.373 29.412H130.533C130.227 29.412 129.966 29.32 129.751 29.136C129.537 28.952 129.337 28.7067 129.153 28.4L123.127 17.82L125.243 17.36V32.034C125.243 32.31 125.151 32.54 124.967 32.724C124.783 32.908 124.553 33 124.277 33H118.573ZM158.117 33.46C156.461 33.46 154.973 33.1533 153.655 32.54C152.367 31.896 151.339 31.0373 150.573 29.964C149.806 28.8907 149.423 27.6793 149.423 26.33C149.423 24.1527 150.312 22.4353 152.091 21.178C153.869 19.89 156.231 19.016 159.175 18.556L164.925 17.682V17.038C164.925 15.934 164.695 15.0907 164.235 14.508C163.775 13.9253 162.931 13.634 161.705 13.634C160.846 13.634 160.141 13.8027 159.589 14.14C159.067 14.4773 158.653 14.9373 158.347 15.52C158.071 15.9187 157.687 16.118 157.197 16.118H152.045C151.707 16.118 151.447 16.026 151.263 15.842C151.079 15.6273 151.002 15.382 151.033 15.106C151.033 14.554 151.232 13.9253 151.631 13.22C152.06 12.484 152.704 11.7633 153.563 11.058C154.421 10.3527 155.525 9.77 156.875 9.31C158.224 8.85 159.849 8.62 161.751 8.62C163.744 8.62 165.446 8.85 166.857 9.31C168.267 9.77 169.402 10.414 170.261 11.242C171.15 12.07 171.809 13.0513 172.239 14.186C172.668 15.29 172.883 16.5167 172.883 17.866V31.85C172.883 32.1873 172.76 32.4633 172.515 32.678C172.3 32.8927 172.039 33 171.733 33H166.397C166.059 33 165.783 32.8927 165.569 32.678C165.354 32.4633 165.247 32.1873 165.247 31.85V30.24C164.848 30.8227 164.311 31.3593 163.637 31.85C162.962 32.3407 162.165 32.724 161.245 33C160.355 33.3067 159.313 33.46 158.117 33.46ZM160.279 28.216C161.168 28.216 161.965 28.032 162.671 27.664C163.407 27.2653 163.974 26.6673 164.373 25.87C164.802 25.042 165.017 24.0147 165.017 22.788V22.144L161.107 22.834C159.665 23.0793 158.607 23.4627 157.933 23.984C157.289 24.4747 156.967 25.0573 156.967 25.732C156.967 26.2533 157.12 26.698 157.427 27.066C157.733 27.434 158.132 27.7253 158.623 27.94C159.113 28.124 159.665 28.216 160.279 28.216ZM185.295 33C184.989 33 184.713 32.8927 184.467 32.678C184.253 32.4633 184.145 32.1873 184.145 31.85V15.106H177.153C176.847 15.106 176.571 14.9987 176.325 14.784C176.111 14.5693 176.003 14.2933 176.003 13.956V10.23C176.003 9.89266 176.111 9.61667 176.325 9.402C176.571 9.18733 176.847 9.08 177.153 9.08H198.773C199.08 9.08 199.341 9.18733 199.555 9.402C199.801 9.61667 199.923 9.89266 199.923 10.23V13.956C199.923 14.2933 199.801 14.5693 199.555 14.784C199.341 14.9987 199.08 15.106 198.773 15.106H191.781V31.85C191.781 32.1873 191.674 32.4633 191.459 32.678C191.245 32.8927 190.969 33 190.631 33H185.295ZM214.591 33.46C212.015 33.46 209.837 33.046 208.059 32.218C206.311 31.39 204.961 30.2093 204.011 28.676C203.091 27.112 202.569 25.2567 202.447 23.11C202.416 22.4967 202.401 21.8067 202.401 21.04C202.401 20.2427 202.416 19.5527 202.447 18.97C202.569 16.7927 203.121 14.9373 204.103 13.404C205.084 11.8707 206.449 10.69 208.197 9.862C209.975 9.034 212.107 8.62 214.591 8.62C217.105 8.62 219.237 9.034 220.985 9.862C222.763 10.69 224.143 11.8707 225.125 13.404C226.106 14.9373 226.658 16.7927 226.781 18.97C226.811 19.5527 226.827 20.2427 226.827 21.04C226.827 21.8067 226.811 22.4967 226.781 23.11C226.658 25.2567 226.121 27.112 225.171 28.676C224.251 30.2093 222.901 31.39 221.123 32.218C219.375 33.046 217.197 33.46 214.591 33.46ZM214.591 27.848C215.971 27.848 216.967 27.434 217.581 26.606C218.225 25.778 218.593 24.536 218.685 22.88C218.715 22.42 218.731 21.8067 218.731 21.04C218.731 20.2733 218.715 19.66 218.685 19.2C218.593 17.5747 218.225 16.348 217.581 15.52C216.967 14.6613 215.971 14.232 214.591 14.232C213.241 14.232 212.245 14.6613 211.601 15.52C210.957 16.348 210.604 17.5747 210.543 19.2C210.512 19.66 210.497 20.2733 210.497 21.04C210.497 21.8067 210.512 22.42 210.543 22.88C210.604 24.536 210.957 25.778 211.601 26.606C212.245 27.434 213.241 27.848 214.591 27.848ZM232.501 41.74C232.163 41.74 231.887 41.6327 231.673 41.418C231.458 41.2033 231.351 40.9273 231.351 40.59V10.23C231.351 9.89266 231.458 9.61667 231.673 9.402C231.887 9.18733 232.163 9.08 232.501 9.08H237.699C238.005 9.08 238.266 9.18733 238.481 9.402C238.726 9.61667 238.849 9.89266 238.849 10.23V11.932C239.554 10.9813 240.489 10.1993 241.655 9.586C242.82 8.942 244.261 8.62 245.979 8.62C247.512 8.62 248.861 8.86533 250.027 9.356C251.192 9.816 252.189 10.506 253.017 11.426C253.845 12.346 254.489 13.4653 254.949 14.784C255.439 16.1027 255.715 17.6207 255.777 19.338C255.807 19.9513 255.823 20.5187 255.823 21.04C255.823 21.5613 255.807 22.1287 255.777 22.742C255.715 24.398 255.455 25.8853 254.995 27.204C254.535 28.5227 253.891 29.642 253.063 30.562C252.235 31.482 251.223 32.2027 250.027 32.724C248.861 33.2147 247.512 33.46 245.979 33.46C244.476 33.46 243.157 33.1993 242.023 32.678C240.919 32.126 239.999 31.3593 239.263 30.378V40.59C239.263 40.9273 239.155 41.2033 238.941 41.418C238.726 41.6327 238.45 41.74 238.113 41.74H232.501ZM243.495 27.296C244.537 27.296 245.35 27.0813 245.933 26.652C246.515 26.2227 246.929 25.64 247.175 24.904C247.451 24.168 247.619 23.3553 247.681 22.466C247.742 21.5153 247.742 20.5647 247.681 19.614C247.619 18.7247 247.451 17.912 247.175 17.176C246.929 16.44 246.515 15.8573 245.933 15.428C245.35 14.9987 244.537 14.784 243.495 14.784C242.483 14.784 241.67 15.014 241.057 15.474C240.443 15.9033 239.999 16.4707 239.723 17.176C239.447 17.8813 239.293 18.648 239.263 19.476C239.232 20.0587 239.217 20.626 239.217 21.178C239.217 21.73 239.232 22.3127 239.263 22.926C239.293 23.6927 239.462 24.4133 239.769 25.088C240.075 25.732 240.535 26.2687 241.149 26.698C241.762 27.0967 242.544 27.296 243.495 27.296ZM261.474 33C261.168 33 260.907 32.8927 260.692 32.678C260.478 32.4633 260.37 32.2027 260.37 31.896V10.23C260.37 9.89266 260.478 9.61667 260.692 9.402C260.907 9.18733 261.183 9.08 261.52 9.08H266.948C267.255 9.08 267.516 9.18733 267.73 9.402C267.976 9.61667 268.098 9.89266 268.098 10.23V27.02L266.028 26.008L277.39 9.816C277.544 9.60133 277.728 9.43266 277.942 9.31C278.157 9.15666 278.402 9.08 278.678 9.08H283.6C283.907 9.08 284.168 9.18733 284.382 9.402C284.597 9.61667 284.704 9.87733 284.704 10.184V31.85C284.704 32.1873 284.597 32.4633 284.382 32.678C284.168 32.8927 283.892 33 283.554 33H278.126C277.789 33 277.513 32.8927 277.298 32.678C277.084 32.4633 276.976 32.1873 276.976 31.85V15.566L279.092 15.98L267.638 32.264C267.516 32.4787 267.347 32.6627 267.132 32.816C266.918 32.9387 266.657 33 266.35 33H261.474ZM292.004 41.786C291.667 41.786 291.376 41.6633 291.13 41.418C290.916 41.2033 290.808 40.9427 290.808 40.636V36.91C290.808 36.5727 290.916 36.2967 291.13 36.082C291.376 35.8673 291.667 35.76 292.004 35.76H293.568C294.151 35.76 294.626 35.6527 294.994 35.438C295.362 35.2233 295.684 34.8707 295.96 34.38C296.267 33.92 296.589 33.276 296.926 32.448L306.126 10.046C306.218 9.77 306.372 9.54 306.586 9.356C306.801 9.172 307.108 9.08 307.506 9.08H312.428C312.704 9.08 312.934 9.18733 313.118 9.402C313.333 9.586 313.44 9.80067 313.44 10.046C313.44 10.1073 313.425 10.1993 313.394 10.322C313.394 10.414 313.364 10.5213 313.302 10.644L304.562 31.712C303.949 33.2147 303.305 34.5793 302.63 35.806C301.986 37.0327 301.281 38.0907 300.514 38.98C299.748 39.9 298.843 40.59 297.8 41.05C296.788 41.5407 295.608 41.786 294.258 41.786H292.004ZM297.432 32.494L288.002 10.644C287.91 10.4293 287.864 10.2453 287.864 10.092C287.926 9.816 288.048 9.586 288.232 9.402C288.416 9.18733 288.662 9.08 288.968 9.08H294.12C294.519 9.08 294.81 9.18733 294.994 9.402C295.209 9.586 295.362 9.80067 295.454 10.046L302.032 26.882L297.432 32.494ZM317.892 33C317.646 33 317.432 32.908 317.248 32.724C317.064 32.54 316.972 32.31 316.972 32.034V10C316.972 9.75467 317.064 9.54 317.248 9.356C317.432 9.172 317.646 9.08 317.892 9.08H323.182C323.734 9.08 324.178 9.356 324.516 9.908L330.772 21.086L337.074 9.908C337.411 9.356 337.856 9.08 338.408 9.08H343.698C343.974 9.08 344.204 9.172 344.388 9.356C344.572 9.54 344.664 9.75467 344.664 10V32.034C344.664 32.31 344.572 32.54 344.388 32.724C344.204 32.908 343.974 33 343.698 33H337.994C337.718 33 337.488 32.908 337.304 32.724C337.12 32.54 337.028 32.31 337.028 32.034V17.038L339.282 17.544L333.072 28.4C332.918 28.676 332.734 28.9213 332.52 29.136C332.336 29.32 332.06 29.412 331.692 29.412H329.852C329.545 29.412 329.284 29.32 329.07 29.136C328.855 28.952 328.656 28.7067 328.472 28.4L322.446 17.82L324.562 17.36V32.034C324.562 32.31 324.47 32.54 324.286 32.724C324.102 32.908 323.872 33 323.596 33H317.892Z" fill="#2B7F76"/>
</g>
<defs>
<filter id="filter0_d_94_2" x="0.341064" y="0.340027" width="348.323" height="49.446" filterUnits="userSpaceOnUse" color-interpolation-filters="sRGB">
<feFlood flood-opacity="0" result="BackgroundImageFix"/>
<feColorMatrix in="SourceAlpha" type="matrix" values="0 0 0 0 0 0 0 0 0 0 0 0 0 0 0 0 0 0 127 0" result="hardAlpha"/>
<feOffset dy="4"/>
<feGaussianBlur stdDeviation="2"/>
<feComposite in2="hardAlpha" operator="out"/>
<feColorMatrix type="matrix" values="0 0 0 0 0 0 0 0 0 0 0 0 0 0 0 0 0 0 0.25 0"/>
<feBlend mode="normal" in2="BackgroundImageFix" result="effect1_dropShadow_94_2"/>
<feBlend mode="normal" in="SourceGraphic" in2="effect1_dropShadow_94_2" result="shape"/>
</filter>
</defs>
</svg>
